<mxfile host="app.diagrams.net" agent="Mozilla/5.0 (Windows NT 10.0; Win64; x64) AppleWebKit/537.36 (KHTML, like Gecko) Chrome/129.0.0.0 Safari/537.36" version="24.7.17">
  <diagram id="C5RBs43oDa-KdzZeNtuy" name="Page-1">
    <mxGraphModel dx="1650" dy="390" grid="1" gridSize="10" guides="1" tooltips="1" connect="1" arrows="1" fold="1" page="1" pageScale="1" pageWidth="827" pageHeight="1169" math="0" shadow="0">
      <root>
        <mxCell id="WIyWlLk6GJQsqaUBKTNV-0" />
        <mxCell id="WIyWlLk6GJQsqaUBKTNV-1" parent="WIyWlLk6GJQsqaUBKTNV-0" />
        <mxCell id="KAMWv7pemtYJYZv9y_ob-0" style="edgeStyle=orthogonalEdgeStyle;rounded=0;orthogonalLoop=1;jettySize=auto;html=1;fillColor=#fff2cc;strokeColor=#d6b656;" edge="1" parent="WIyWlLk6GJQsqaUBKTNV-1">
          <mxGeometry relative="1" as="geometry">
            <mxPoint x="220" y="140" as="targetPoint" />
            <mxPoint x="220" y="140" as="sourcePoint" />
          </mxGeometry>
        </mxCell>
        <mxCell id="KAMWv7pemtYJYZv9y_ob-62" style="edgeStyle=orthogonalEdgeStyle;rounded=0;orthogonalLoop=1;jettySize=auto;html=1;exitX=1;exitY=0.5;exitDx=0;exitDy=0;entryX=0;entryY=0.5;entryDx=0;entryDy=0;strokeColor=#D6B656;" edge="1" parent="WIyWlLk6GJQsqaUBKTNV-1" source="WIyWlLk6GJQsqaUBKTNV-7" target="WIyWlLk6GJQsqaUBKTNV-12">
          <mxGeometry relative="1" as="geometry" />
        </mxCell>
        <mxCell id="WIyWlLk6GJQsqaUBKTNV-7" value="Selecciona la pestaña &quot;Clientes&quot; y la opción &quot;Facturas&quot;&amp;nbsp;" style="rounded=1;whiteSpace=wrap;html=1;fontSize=12;glass=0;strokeWidth=1;shadow=0;fillColor=#fff2cc;strokeColor=#d6b656;" parent="WIyWlLk6GJQsqaUBKTNV-1" vertex="1">
          <mxGeometry x="330" y="70.00999999999999" width="220" height="80" as="geometry" />
        </mxCell>
        <mxCell id="KAMWv7pemtYJYZv9y_ob-55" style="edgeStyle=orthogonalEdgeStyle;rounded=0;orthogonalLoop=1;jettySize=auto;html=1;exitX=1;exitY=0.5;exitDx=0;exitDy=0;strokeColor=#D6B656;fillColor=#FFD966;shadow=1;entryX=1;entryY=0.5;entryDx=0;entryDy=0;" edge="1" parent="WIyWlLk6GJQsqaUBKTNV-1" source="WIyWlLk6GJQsqaUBKTNV-12" target="KAMWv7pemtYJYZv9y_ob-1">
          <mxGeometry relative="1" as="geometry">
            <mxPoint x="820.344827586207" y="240" as="targetPoint" />
            <Array as="points">
              <mxPoint x="800" y="118" />
              <mxPoint x="820" y="118" />
              <mxPoint x="820" y="220" />
            </Array>
          </mxGeometry>
        </mxCell>
        <mxCell id="WIyWlLk6GJQsqaUBKTNV-12" value="En la opción &quot;Filtro&quot; selecciona &quot;Fecha de Factura&quot; seguido del mes a visualizar" style="rounded=1;whiteSpace=wrap;html=1;fontSize=12;glass=0;strokeWidth=1;shadow=0;fillColor=#fff2cc;strokeColor=#d6b656;" parent="WIyWlLk6GJQsqaUBKTNV-1" vertex="1">
          <mxGeometry x="580" y="70.00999999999999" width="220" height="80" as="geometry" />
        </mxCell>
        <mxCell id="KAMWv7pemtYJYZv9y_ob-59" style="edgeStyle=orthogonalEdgeStyle;rounded=0;orthogonalLoop=1;jettySize=auto;html=1;exitX=0;exitY=0.5;exitDx=0;exitDy=0;entryX=1;entryY=0.5;entryDx=0;entryDy=0;strokeColor=#D6B656;" edge="1" parent="WIyWlLk6GJQsqaUBKTNV-1" source="KAMWv7pemtYJYZv9y_ob-1" target="KAMWv7pemtYJYZv9y_ob-3">
          <mxGeometry relative="1" as="geometry" />
        </mxCell>
        <mxCell id="KAMWv7pemtYJYZv9y_ob-1" value="En la visual de facturas marca check en la pestaña &quot;Número&quot;, y selecciona el grupo" style="rounded=1;whiteSpace=wrap;html=1;fontSize=12;glass=0;strokeWidth=1;shadow=0;fillColor=#FFF2CC;strokeColor=#d6b656;" vertex="1" parent="WIyWlLk6GJQsqaUBKTNV-1">
          <mxGeometry x="580" y="180" width="220" height="80" as="geometry" />
        </mxCell>
        <mxCell id="KAMWv7pemtYJYZv9y_ob-60" value="" style="edgeStyle=orthogonalEdgeStyle;rounded=0;orthogonalLoop=1;jettySize=auto;html=1;strokeColor=#D6B656;" edge="1" parent="WIyWlLk6GJQsqaUBKTNV-1" source="KAMWv7pemtYJYZv9y_ob-3" target="KAMWv7pemtYJYZv9y_ob-38">
          <mxGeometry relative="1" as="geometry" />
        </mxCell>
        <mxCell id="KAMWv7pemtYJYZv9y_ob-3" value="Da clic en &quot;Acción&quot; seguido de la opción &quot;Exportar&quot;" style="rounded=1;whiteSpace=wrap;html=1;fontSize=12;glass=0;strokeWidth=1;shadow=0;fillColor=#fff2cc;strokeColor=#d6b656;" vertex="1" parent="WIyWlLk6GJQsqaUBKTNV-1">
          <mxGeometry x="330" y="180" width="220" height="80" as="geometry" />
        </mxCell>
        <mxCell id="KAMWv7pemtYJYZv9y_ob-4" value="" style="endArrow=classic;html=1;rounded=0;" edge="1" parent="WIyWlLk6GJQsqaUBKTNV-1">
          <mxGeometry relative="1" as="geometry">
            <mxPoint x="200" y="900" as="sourcePoint" />
            <mxPoint x="360" y="900" as="targetPoint" />
          </mxGeometry>
        </mxCell>
        <mxCell id="KAMWv7pemtYJYZv9y_ob-5" value="Label" style="edgeLabel;resizable=0;html=1;;align=center;verticalAlign=middle;" connectable="0" vertex="1" parent="KAMWv7pemtYJYZv9y_ob-4">
          <mxGeometry relative="1" as="geometry" />
        </mxCell>
        <mxCell id="KAMWv7pemtYJYZv9y_ob-6" value="Source" style="edgeLabel;resizable=0;html=1;;align=left;verticalAlign=bottom;" connectable="0" vertex="1" parent="KAMWv7pemtYJYZv9y_ob-4">
          <mxGeometry x="-1" relative="1" as="geometry" />
        </mxCell>
        <mxCell id="KAMWv7pemtYJYZv9y_ob-7" value="Target" style="edgeLabel;resizable=0;html=1;;align=right;verticalAlign=bottom;" connectable="0" vertex="1" parent="KAMWv7pemtYJYZv9y_ob-4">
          <mxGeometry x="1" relative="1" as="geometry" />
        </mxCell>
        <mxCell id="KAMWv7pemtYJYZv9y_ob-18" value="&lt;h1 style=&quot;margin-top: 0px;&quot;&gt;Heading&lt;/h1&gt;&lt;p&gt;Lorem ipsum dolor sit amet, consectetur adipisicing elit, sed do eiusmod tempor incididunt ut labore et dolore magna aliqua.&lt;/p&gt;" style="text;html=1;whiteSpace=wrap;overflow=hidden;rounded=0;" vertex="1" parent="WIyWlLk6GJQsqaUBKTNV-1">
          <mxGeometry x="25" y="890" width="180" height="120" as="geometry" />
        </mxCell>
        <mxCell id="KAMWv7pemtYJYZv9y_ob-32" value="Archivo Excel" style="strokeWidth=2;html=1;shape=mxgraph.flowchart.document2;whiteSpace=wrap;size=0.25;fillColor=#B3FF66;strokeColor=#66CC00;" vertex="1" parent="WIyWlLk6GJQsqaUBKTNV-1">
          <mxGeometry x="380" y="410" width="170" height="60" as="geometry" />
        </mxCell>
        <mxCell id="KAMWv7pemtYJYZv9y_ob-34" value="" style="strokeWidth=2;html=1;shape=mxgraph.flowchart.terminator;whiteSpace=wrap;" vertex="1" parent="WIyWlLk6GJQsqaUBKTNV-1">
          <mxGeometry x="490" y="930" width="100" height="60" as="geometry" />
        </mxCell>
        <mxCell id="KAMWv7pemtYJYZv9y_ob-63" style="edgeStyle=orthogonalEdgeStyle;rounded=0;orthogonalLoop=1;jettySize=auto;html=1;exitX=0;exitY=0.5;exitDx=0;exitDy=0;entryX=0;entryY=0.5;entryDx=0;entryDy=0;strokeColor=#D6B656;" edge="1" parent="WIyWlLk6GJQsqaUBKTNV-1" source="KAMWv7pemtYJYZv9y_ob-38" target="KAMWv7pemtYJYZv9y_ob-45">
          <mxGeometry relative="1" as="geometry" />
        </mxCell>
        <mxCell id="KAMWv7pemtYJYZv9y_ob-38" value="En la ventana &quot;Exportar Información&quot;, va la pestaña de &quot;Campos a exportar&quot;, despliega la lista &quot;Plantilla&quot; y selecciona la opción &quot;R-01 Facturación&quot;" style="rounded=1;whiteSpace=wrap;html=1;fontSize=12;glass=0;strokeWidth=1;shadow=0;fillColor=#fff2cc;strokeColor=#d6b656;" vertex="1" parent="WIyWlLk6GJQsqaUBKTNV-1">
          <mxGeometry x="73" y="180" width="227" height="80" as="geometry" />
        </mxCell>
        <mxCell id="KAMWv7pemtYJYZv9y_ob-42" value="Leyenda" style="swimlane;whiteSpace=wrap;html=1;" vertex="1" parent="WIyWlLk6GJQsqaUBKTNV-1">
          <mxGeometry x="-170" y="100" width="200" height="200" as="geometry" />
        </mxCell>
        <mxCell id="KAMWv7pemtYJYZv9y_ob-40" value="" style="whiteSpace=wrap;html=1;fillColor=#fff2cc;strokeColor=#d6b656;" vertex="1" parent="KAMWv7pemtYJYZv9y_ob-42">
          <mxGeometry x="45" y="50" width="20" height="20" as="geometry" />
        </mxCell>
        <mxCell id="KAMWv7pemtYJYZv9y_ob-41" value="Odoo" style="text;strokeColor=none;align=center;fillColor=none;html=1;verticalAlign=middle;whiteSpace=wrap;rounded=0;" vertex="1" parent="KAMWv7pemtYJYZv9y_ob-42">
          <mxGeometry x="70" y="45" width="60" height="30" as="geometry" />
        </mxCell>
        <mxCell id="KAMWv7pemtYJYZv9y_ob-43" value="" style="whiteSpace=wrap;html=1;fillColor=#CCFF99;strokeColor=#66CC00;" vertex="1" parent="KAMWv7pemtYJYZv9y_ob-42">
          <mxGeometry x="45" y="90" width="20" height="20" as="geometry" />
        </mxCell>
        <mxCell id="KAMWv7pemtYJYZv9y_ob-46" value="Excel" style="text;strokeColor=none;align=center;fillColor=none;html=1;verticalAlign=middle;whiteSpace=wrap;rounded=0;" vertex="1" parent="KAMWv7pemtYJYZv9y_ob-42">
          <mxGeometry x="70" y="85" width="60" height="30" as="geometry" />
        </mxCell>
        <mxCell id="KAMWv7pemtYJYZv9y_ob-64" value="" style="whiteSpace=wrap;html=1;fillColor=#C3ABD0;strokeColor=#B5739D;" vertex="1" parent="KAMWv7pemtYJYZv9y_ob-42">
          <mxGeometry x="45" y="130" width="20" height="20" as="geometry" />
        </mxCell>
        <mxCell id="KAMWv7pemtYJYZv9y_ob-45" value="Da clic en el botón &quot;Exportar&quot;" style="rounded=1;whiteSpace=wrap;html=1;fontSize=12;glass=0;strokeWidth=1;shadow=0;fillColor=#fff2cc;strokeColor=#d6b656;" vertex="1" parent="WIyWlLk6GJQsqaUBKTNV-1">
          <mxGeometry x="73" y="290" width="227" height="80" as="geometry" />
        </mxCell>
        <mxCell id="KAMWv7pemtYJYZv9y_ob-47" value="" style="rounded=0;html=1;jettySize=auto;orthogonalLoop=1;fontSize=11;endArrow=block;endFill=0;endSize=8;strokeWidth=1;shadow=0;labelBackgroundColor=none;edgeStyle=orthogonalEdgeStyle;entryX=0;entryY=0.5;entryDx=0;entryDy=0;fillColor=#fff2cc;strokeColor=#d6b656;" edge="1" parent="WIyWlLk6GJQsqaUBKTNV-1" target="KAMWv7pemtYJYZv9y_ob-33">
          <mxGeometry relative="1" as="geometry">
            <mxPoint x="180" y="111.25" as="sourcePoint" />
            <mxPoint x="365" y="111" as="targetPoint" />
          </mxGeometry>
        </mxCell>
        <mxCell id="KAMWv7pemtYJYZv9y_ob-61" style="edgeStyle=orthogonalEdgeStyle;rounded=0;orthogonalLoop=1;jettySize=auto;html=1;exitX=1;exitY=0.5;exitDx=0;exitDy=0;exitPerimeter=0;entryX=0;entryY=0.5;entryDx=0;entryDy=0;strokeColor=#D6B656;" edge="1" parent="WIyWlLk6GJQsqaUBKTNV-1" source="KAMWv7pemtYJYZv9y_ob-33" target="WIyWlLk6GJQsqaUBKTNV-7">
          <mxGeometry relative="1" as="geometry" />
        </mxCell>
        <mxCell id="KAMWv7pemtYJYZv9y_ob-33" value="Ingresa al módulo &quot;Contabilidad&quot;" style="strokeWidth=2;html=1;shape=mxgraph.flowchart.start_1;whiteSpace=wrap;fillColor=#fff2cc;strokeColor=#d6b656;" vertex="1" parent="WIyWlLk6GJQsqaUBKTNV-1">
          <mxGeometry x="74.75" y="61.88" width="223.5" height="96.25" as="geometry" />
        </mxCell>
        <mxCell id="KAMWv7pemtYJYZv9y_ob-65" style="edgeStyle=orthogonalEdgeStyle;rounded=0;orthogonalLoop=1;jettySize=auto;html=1;exitX=1;exitY=0.5;exitDx=0;exitDy=0;entryX=0.5;entryY=0;entryDx=0;entryDy=0;entryPerimeter=0;strokeColor=#D6B656;" edge="1" parent="WIyWlLk6GJQsqaUBKTNV-1" source="KAMWv7pemtYJYZv9y_ob-45" target="KAMWv7pemtYJYZv9y_ob-32">
          <mxGeometry relative="1" as="geometry" />
        </mxCell>
        <mxCell id="KAMWv7pemtYJYZv9y_ob-66" value="" style="rounded=1;whiteSpace=wrap;html=1;fontSize=12;glass=0;strokeWidth=1;shadow=0;fillColor=#B3FF66;strokeColor=#66CC00;" vertex="1" parent="WIyWlLk6GJQsqaUBKTNV-1">
          <mxGeometry x="74.75" y="480" width="227" height="80" as="geometry" />
        </mxCell>
      </root>
    </mxGraphModel>
  </diagram>
</mxfile>
